<svg width="40" height="40" viewBox="0 0 40 40" fill="none" xmlns="http://www.w3.org/2000/svg">
<rect width="40" height="40" rx="20" fill="#F59E0B"/>
<g clip-path="url(#clip0_774_2434)">
<path d="M14.4366 26.2737L13.9514 28.0848C13.8978 28.2848 14.0166 28.4905 14.2165 28.5441L15.6654 28.9323C15.7615 28.9581 15.8638 28.9446 15.95 28.8949C16.0361 28.8452 16.0989 28.7632 16.1247 28.6672L16.61 26.8561L17.3344 27.0502L16.8491 28.8613C16.7956 29.0612 16.9143 29.267 17.1143 29.3206L18.5632 29.7088C18.6593 29.7345 18.7616 29.7211 18.8477 29.6713C18.9339 29.6216 18.9967 29.5397 19.0225 29.4436L19.5077 27.6325L19.6295 27.6651C22.5156 28.4385 24.9799 27.4946 25.6737 24.9055C26.2568 22.7292 25.1165 21.1487 23.4537 20.5215L23.4878 20.394C24.9872 20.42 26.3044 19.6362 26.7765 17.8743C27.3713 15.6546 26.0661 13.8607 23.5233 13.1794L23.39 13.1436L23.8753 11.3325C23.9011 11.2365 23.8876 11.1341 23.8379 11.048C23.7881 10.9618 23.7062 10.899 23.6102 10.8733L22.1613 10.485C22.0652 10.4593 21.9628 10.4728 21.8767 10.5225C21.7906 10.5722 21.7277 10.6541 21.702 10.7502L21.2167 12.5613L20.3865 12.3388L20.8718 10.5277C20.8975 10.4317 20.884 10.3293 20.8343 10.2432C20.7846 10.157 20.7027 10.0942 20.6066 10.0685L19.2635 9.70856C19.1674 9.68282 19.0651 9.6963 18.9789 9.74603C18.8928 9.79576 18.83 9.87766 18.8042 9.97373L18.3189 11.7848L15.4198 11.0251C15.3237 10.9994 15.2213 11.0128 15.1352 11.0626C15.0491 11.1123 14.9862 11.1942 14.9605 11.2903L14.5765 12.7232C14.5233 12.9217 14.6389 13.1281 14.8388 13.1817L15.9347 13.4676C16.2211 13.5464 16.4647 13.7353 16.6124 13.993C16.7601 14.2508 16.7998 14.5565 16.7229 14.8435L14.5857 22.8196C14.5085 23.1078 14.3199 23.3535 14.0615 23.5027C13.8031 23.6519 13.4961 23.6923 13.2079 23.6151L12.1198 23.3407C12.0238 23.3149 11.9214 23.3284 11.8353 23.3781C11.7491 23.4278 11.6863 23.5097 11.6606 23.6058L11.2723 25.0547C11.2187 25.2547 11.3375 25.4604 11.5375 25.514L14.4366 26.2737ZM19.8092 14.4933L22.2998 15.1607C23.6125 15.5124 24.19 16.4405 23.874 17.6199C23.5358 18.8819 22.5121 19.3701 20.6256 18.8646L18.7711 18.3677L19.8092 14.4933ZM18.2365 20.3628L20.9024 21.0771C22.5498 21.5185 23.2215 22.5992 22.855 23.967C22.485 25.3478 21.3851 25.8248 19.1654 25.2301L17.0819 24.6718L18.2361 20.3642L18.2365 20.3628Z" fill="white"/>
</g>
<defs>
<clipPath id="clip0_774_2434">
<rect width="24" height="24" fill="white" transform="translate(11.5147 5.30298) rotate(15)"/>
</clipPath>
</defs>
</svg>
