<svg width="35" height="35" viewBox="0 0 35 35" fill="none" xmlns="http://www.w3.org/2000/svg">
<circle opacity="0.2" cx="17.5" cy="17.5" r="17.5" fill="white"/>
<path d="M22.1667 26.3333H13.8333C13.4917 26.3333 13.2083 26.0499 13.2083 25.7083C13.2083 25.3666 13.4917 25.0833 13.8333 25.0833H22.1667C22.5083 25.0833 22.7917 25.3666 22.7917 25.7083C22.7917 26.0499 22.5083 26.3333 22.1667 26.3333Z" fill="white"/>
<path d="M24.9583 12.6L21.625 14.9833C21.1833 15.3 20.55 15.1083 20.3583 14.6L18.7833 10.4C18.5167 9.67495 17.4917 9.67495 17.225 10.4L15.6417 14.5916C15.45 15.1083 14.825 15.3 14.3833 14.975L11.05 12.5916C10.3833 12.125 9.5 12.7833 9.775 13.5583L13.2417 23.2666C13.3583 23.6 13.675 23.8166 14.025 23.8166H21.9667C22.3167 23.8166 22.6333 23.5916 22.75 23.2666L26.2167 13.5583C26.5 12.7833 25.6167 12.125 24.9583 12.6ZM20.0833 20.2916H15.9167C15.575 20.2916 15.2917 20.0083 15.2917 19.6666C15.2917 19.325 15.575 19.0416 15.9167 19.0416H20.0833C20.425 19.0416 20.7083 19.325 20.7083 19.6666C20.7083 20.0083 20.425 20.2916 20.0833 20.2916Z" fill="white"/>
</svg>
