<svg width="20" height="20" viewBox="0 0 20 20" fill="none" xmlns="http://www.w3.org/2000/svg">
<path d="M12.375 3.29159V6.45825H11.125V3.29159C11.125 3.06659 10.925 2.95825 10.7917 2.95825C10.75 2.95825 10.7083 2.96659 10.6667 2.98325L4.05833 5.47492C3.61666 5.64159 3.33333 6.05825 3.33333 6.53325V7.09159C2.57499 7.65825 2.08333 8.56659 2.08333 9.59159V6.53325C2.08333 5.54159 2.69166 4.65825 3.61666 4.30825L10.2333 1.80825C10.4167 1.74159 10.6083 1.70825 10.7917 1.70825C11.625 1.70825 12.375 2.38325 12.375 3.29159Z" fill="#2873FF"/>
<path d="M17.9167 12.0834V12.9167C17.9167 13.1417 17.7417 13.3251 17.5083 13.3334H16.2917C15.85 13.3334 15.45 13.0084 15.4167 12.5751C15.3917 12.3167 15.4917 12.0751 15.6583 11.9084C15.8083 11.7501 16.0167 11.6667 16.2417 11.6667H17.5C17.7417 11.6751 17.9167 11.8584 17.9167 12.0834Z" fill="#2873FF"/>
<path d="M16.2333 10.7916H17.0833C17.5417 10.7916 17.9167 10.4166 17.9167 9.95825V9.59159C17.9167 7.86659 16.5083 6.45825 14.7833 6.45825H5.21666C4.50833 6.45825 3.85833 6.69159 3.33333 7.09159C2.57499 7.65825 2.08333 8.56659 2.08333 9.59159V15.1999C2.08333 16.9249 3.49166 18.3333 5.21666 18.3333H14.7833C16.5083 18.3333 17.9167 16.9249 17.9167 15.1999V15.0416C17.9167 14.5833 17.5417 14.2083 17.0833 14.2083H16.3583C15.5583 14.2083 14.7917 13.7166 14.5833 12.9416C14.4083 12.3083 14.6167 11.6999 15.0333 11.2916C15.3417 10.9749 15.7667 10.7916 16.2333 10.7916ZM11.6667 10.6249H5.83333C5.49166 10.6249 5.20833 10.3416 5.20833 9.99992C5.20833 9.65825 5.49166 9.37492 5.83333 9.37492H11.6667C12.0083 9.37492 12.2917 9.65825 12.2917 9.99992C12.2917 10.3416 12.0083 10.6249 11.6667 10.6249Z" fill="#2873FF"/>
</svg>
