<svg width="19" height="19" viewBox="0 0 19 19" fill="none" xmlns="http://www.w3.org/2000/svg">
<path d="M14.8438 6.33325V7.99575C14.4954 7.94825 14.0996 7.9245 13.6562 7.91658V6.33325C13.6562 3.8395 12.9517 2.177 9.5 2.177C6.04833 2.177 5.34375 3.8395 5.34375 6.33325V7.91658C4.90042 7.9245 4.50458 7.94825 4.15625 7.99575V6.33325C4.15625 4.03742 4.71042 0.989502 9.5 0.989502C14.2896 0.989502 14.8438 4.03742 14.8438 6.33325Z" fill="#4263EB"/>
<path d="M14.8437 7.99592C14.4954 7.94842 14.0996 7.92466 13.6562 7.91675H5.34374C4.90041 7.92466 4.50458 7.94842 4.15624 7.99592C2.13749 8.24133 1.58333 9.23091 1.58333 11.8751V13.4584C1.58333 16.6251 2.37499 17.4167 5.54166 17.4167H13.4583C16.625 17.4167 17.4167 16.6251 17.4167 13.4584V11.8751C17.4167 9.23091 16.8625 8.24133 14.8437 7.99592ZM6.89541 13.2288C6.74499 13.3713 6.53916 13.4584 6.33333 13.4584C6.23041 13.4584 6.12749 13.4347 6.03249 13.3951C5.92958 13.3555 5.85041 13.3001 5.77124 13.2288C5.62874 13.0784 5.54166 12.8726 5.54166 12.6667C5.54166 12.5638 5.56541 12.4609 5.60499 12.3659C5.64458 12.2709 5.69999 12.1838 5.77124 12.1047C5.85041 12.0334 5.92958 11.978 6.03249 11.9384C6.32541 11.8117 6.67374 11.883 6.89541 12.1047C6.96666 12.1838 7.02208 12.2709 7.06166 12.3659C7.10124 12.4609 7.12499 12.5638 7.12499 12.6667C7.12499 12.8726 7.03791 13.0784 6.89541 13.2288ZM10.2283 12.9676C10.1887 13.0626 10.1333 13.1497 10.0621 13.2288C9.91166 13.3713 9.70583 13.4584 9.49999 13.4584C9.28624 13.4584 9.08833 13.3713 8.93791 13.2288C8.86666 13.1497 8.81124 13.0626 8.77166 12.9676C8.73208 12.8726 8.70833 12.7697 8.70833 12.6667C8.70833 12.453 8.79541 12.2551 8.93791 12.1047C9.23083 11.8117 9.76124 11.8117 10.0621 12.1047C10.2046 12.2551 10.2917 12.453 10.2917 12.6667C10.2917 12.7697 10.2679 12.8726 10.2283 12.9676ZM13.2287 13.2288C13.0783 13.3713 12.8725 13.4584 12.6667 13.4584C12.4608 13.4584 12.255 13.3713 12.1046 13.2288C11.9621 13.0784 11.875 12.8805 11.875 12.6667C11.875 12.453 11.9621 12.2551 12.1046 12.1047C12.4054 11.8117 12.9358 11.8117 13.2287 12.1047C13.2604 12.1442 13.2921 12.1838 13.3237 12.2313C13.3554 12.2709 13.3792 12.3184 13.395 12.3659C13.4187 12.4134 13.4346 12.4609 13.4425 12.5084C13.4504 12.5638 13.4583 12.6192 13.4583 12.6667C13.4583 12.8726 13.3712 13.0784 13.2287 13.2288Z" fill="#4263EB"/>
</svg>
