<svg width="20" height="20" viewBox="0 0 20 20" fill="none" xmlns="http://www.w3.org/2000/svg">
<g clip-path="url(#clip0_338_10148)">
<path d="M10 18.3334C5.39751 18.3334 1.66667 14.6026 1.66667 10.0001C1.66667 5.39758 5.39751 1.66675 10 1.66675C14.6025 1.66675 18.3333 5.39758 18.3333 10.0001C18.3333 14.6026 14.6025 18.3334 10 18.3334ZM9.16667 12.5001V14.1667H10.8333V12.5001H9.16667ZM10.8333 11.1292C11.5031 10.9274 12.078 10.4917 12.4535 9.90153C12.8289 9.31136 12.9799 8.60596 12.879 7.9138C12.778 7.22165 12.4318 6.58878 11.9034 6.13046C11.3749 5.67214 10.6995 5.41886 10 5.41675C9.32572 5.4167 8.67223 5.65021 8.15067 6.07758C7.62911 6.50494 7.27168 7.09977 7.13917 7.76091L8.77417 8.08842C8.82057 7.85628 8.93194 7.64208 9.09531 7.47076C9.25869 7.29944 9.46735 7.17803 9.69703 7.12067C9.9267 7.0633 10.1679 7.07234 10.3927 7.14672C10.6174 7.22111 10.8164 7.35778 10.9665 7.54084C11.1166 7.7239 11.2117 7.94582 11.2406 8.18078C11.2695 8.41574 11.2311 8.65408 11.1298 8.86807C11.0286 9.08205 10.8686 9.26288 10.6686 9.38952C10.4686 9.51616 10.2367 9.5834 10 9.58342C9.77899 9.58342 9.56703 9.67121 9.41075 9.82749C9.25447 9.98377 9.16667 10.1957 9.16667 10.4167V11.6667H10.8333V11.1292Z" fill="#2873FF"/>
</g>
<defs>
<clipPath id="clip0_338_10148">
<rect width="20" height="20" fill="white"/>
</clipPath>
</defs>
</svg>
