<svg width="20" height="20" viewBox="0 0 20 20" fill="none" xmlns="http://www.w3.org/2000/svg">
<path d="M10 1.66675C7.81667 1.66675 6.04167 3.44175 6.04167 5.62508C6.04167 7.76675 7.71667 9.50008 9.90001 9.57508C9.96667 9.56675 10.0333 9.56675 10.0833 9.57508C10.1 9.57508 10.1083 9.57508 10.125 9.57508C10.1333 9.57508 10.1333 9.57508 10.1417 9.57508C12.275 9.50008 13.95 7.76675 13.9583 5.62508C13.9583 3.44175 12.1833 1.66675 10 1.66675Z" fill="#2873FF"/>
<path d="M14.2333 11.7917C11.9083 10.2417 8.11666 10.2417 5.775 11.7917C4.71666 12.5 4.13333 13.4583 4.13333 14.4833C4.13333 15.5083 4.71666 16.4583 5.76666 17.1583C6.93333 17.9416 8.46666 18.3333 10 18.3333C11.5333 18.3333 13.0667 17.9416 14.2333 17.1583C15.2833 16.45 15.8667 15.5 15.8667 14.4667C15.8583 13.4417 15.2833 12.4917 14.2333 11.7917Z" fill="#2873FF"/>
</svg>
